v -0.12 0.3 0
v 0.12 0.3 0
v 0.39 0.15 0
v 0.33 0.03 0
v 0.195 0.06 0
v 0.195 -0.33 0
v -0.195 -0.33 0
v -0.195 0.06 0
v -0.33 0.03 0
v -0.39 0.15 0
v -0.255 0.22499999999999998 0
v -0.3225 0.1875 0
v -0.2625 0.045 0
v -0.36 0.08999999999999998 0
v -0.33913043478260874 0.13793478260869563 0
v -0.31733965530077424 0.09993721461187215 0
v -0.291360004902972 0.14008303276030648 0
v -0.20374317484512383 0.14907169706438178 0
v -0.246283955483884 0.13222112340846237 0
v -0.21028567513070898 0.10346453429599335 0
v -0.24043127531220146 0.17956979876538082 0
v -0.12559220866337006 0.1088295523505007 0
v -0.1875 0.26249999999999996 0
v -0.20569935361104696 0.21575883649988448 0
v -0.11374048823654888 0.206866984887806 0
v -0.15846593962975908 0.2242814915959395 0
v -0.15376369504852014 0.1702170539733626 0
v -0.12148287075340677 0.253123475736635 0
v 0.0 0.3 0
v -0.06 0.3 0
v -0.062296675922700676 0.23925382102498255 0
v -0.040974816193434016 0.14833526918490525 0
v -0.06728375055348511 0.19012483688652548 0
v -0.10529761117986339 0.15746857596507766 0
v 0.006572497779638593 0.20744531257842483 0
v -0.3014607144804403 0.06094821516198142 0
v -0.26647344772452036 0.09085673381715081 0
v -0.195 -0.135 0
v -0.014414258305940376 0.2524657070467315 0
v 0.06 0.3 0
v 0.11453602197963383 0.1512941568958014 0
v 0.039441646490863805 0.25016943248003826 0
v 0.06818828177684741 0.1940478993772384 0
v 0.02502517982442182 0.14392399878322823 0
v 0.255 0.22499999999999998 0
v 0.09837230879903193 0.2449318795079158 0
v 0.1875 0.26249999999999996 0
v 0.1417621649182536 0.2596718968528565 0
v 0.13670203918005724 0.2033343963242379 0
v 0.20009120253787877 0.14559360309458172 0
v 0.15830948151062035 0.1633901074367088 0
v 0.15150289904644754 0.10276930505496416 0
v 0.20033564529019435 0.20411223733100667 0
v 0.07510750480602559 0.08291363342112447 0
v 0.10914589875442332 0.10884453432875482 0
v 0.07079565961307469 0.13528115234931573 0
v 0.12307392011962984 0.05525598276495118 0
v 0.195 -0.135 0
v 0.07652624247441987 0.029951450301719133 0
v -0.017704913568960867 0.05392730369874854 0
v 0.032805096851720256 0.05528035318036162 0
v 0.0063976272048457405 0.09762589931710756 0
v 0.009706700433233035 -0.02590345088032628 0
v -0.0447402798648585 0.09733535507945876 0
v 0.036048270957701634 0.010479728934297095 0
v -0.09371826218232228 0.03670783123562202 0
v 0.08737482660978454 -0.054408198758540506 0
v -0.08282670317631442 0.11953914094519982 0
v 0.195 -0.037500000000000006 0
v 0.12649419472932574 -0.006500094765168683 0
v 0.14343464684248403 -0.06025833737561244 0
v 0.195 0.011249999999999996 0
v 0.1066985296009019 -0.14076178802126835 0
v 0.195 -0.08625000000000001 0
v 0.1503804498233374 -0.110625 0
v 0.15461792636109523 0.026030251408553026 0
v 0.10752747575379168 -0.09523742382586745 0
v 0.025072198548946836 -0.11054789878566243 0
v -0.006431051954438908 0.1692269632700249 0
v 0.3225 0.1875 0
v -0.03732522816052518 0.002568682685599101 0
v -0.1420353605744397 0.05845840690000433 0
v -0.16720392268486584 0.09454385310718014 0
v -0.05612755977747115 -0.08157121013204113 0
v -0.195 -0.037500000000000006 0
v -0.032573873086512314 -0.0426638585630431 0
v -0.09325435987834713 -0.026172091308308748 0
v -0.195 0.011249999999999996 0
v -0.1462103848454762 -0.013125000000000005 0
v -0.1401611817906461 -0.08625000000000001 0
v -0.195 -0.08625000000000001 0
v -0.12070146768827666 -0.208125 0
v -0.09891305802421427 -0.07010456230527337 0
v -0.0980517154622424 -0.13306787244434312 0
v -0.1465202410742948 -0.13431576297970804 0
v -0.195 -0.2325 0
v -0.195 -0.18375000000000002 0
v 0.0 -0.33 0
v -0.03250012521867016 -0.14362048926960747 0
v -0.15183299535741038 -0.17759456102975757 0
v -0.01782999346132176 -0.10251119732970422 0
v -0.07227052353901742 -0.18179381713020115 0
v -0.0975 -0.33 0
v -0.0793001261617017 -0.22656937791965936 0
v -0.0013612821487551802 -0.21586590558365007 0
v -0.12433182730517753 -0.27196205875112556 0
v -0.030443196240382085 -0.18556728159241878 0
v 0.020830018677192627 -0.16545940276223298 0
v 0.08396437419155828 -0.2233421756561415 0
v 0.060247935508305886 -0.1408850114520814 0
v 0.04257075186274151 -0.205118766493462 0
v 0.0975 -0.33 0
v -0.15192630187960388 -0.238371027169049 0
v -0.195 -0.28125 0
v -0.14625 -0.33 0
v -0.02712167676642772 -0.2732483161376005 0
v 0.03426507278346727 -0.26633291141012655 0
v -0.038628984741115105 -0.2336089517683284 0
v -0.0757599549879946 -0.2751145327860125 0
v -0.04875 -0.33 0
v 0.04875 -0.33 0
v 0.08705495212401626 -0.27713775473126046 0
v 0.195 -0.2325 0
v 0.14625 -0.2929044495938992 0
v 0.195 -0.28125 0
v 0.03972712899016355 -0.06417071811998828 0
v -0.0003010060508444254 -0.06645298159730306 0
v 0.2625 0.045 0
v 0.2393741758868959 0.1003087914910315 0
v 0.2801654967491236 0.08487543733626471 0
v 0.27964856543567423 0.14513283949780023 0
v 0.36 0.08999999999999998 0
v 0.28875 0.20625 0
v 0.2523265745044192 0.1804378341079545 0
v 0.3318889012892926 0.13514957741895867 0
v 0.3210761364003899 0.07196193179980505 0
v 0.1422011072411104 -0.19495507007927054 0
v 0.10057881805506957 -0.18349656742568768 0
v 0.13031682339907408 -0.2445046992324051 0
v 0.195 -0.18375000000000002 0
f 17 19 21
f 17 12 15
f 16 37 17
f 8 20 37
f 28 23 26
f 14 16 15
f 93 89 90
f 36 37 16
f 10 14 15
f 9 13 36
f 48 2 46
f 23 24 26
f 5 128 129
f 36 14 9
f 15 16 17
f 131 129 130
f 14 36 16
f 10 15 12
f 12 17 21
f 20 83 18
f 21 24 11
f 19 37 20
f 21 19 18
f 8 82 83
f 18 19 20
f 11 24 23
f 21 11 12
f 84 93 94
f 33 35 31
f 21 18 24
f 27 26 24
f 26 27 25
f 39 29 30
f 1 28 30
f 27 24 18
f 28 26 25
f 83 27 18
f 25 34 33
f 30 31 39
f 23 28 1
f 33 34 32
f 28 31 30
f 31 28 25
f 31 25 33
f 66 60 64
f 35 43 42
f 25 27 34
f 33 32 79
f 27 22 34
f 34 22 68
f 56 43 44
f 42 39 35
f 37 36 13
f 37 13 8
f 37 19 17
f 137 73 138
f 71 69 70
f 31 35 39
f 29 42 40
f 46 40 42
f 39 42 29
f 35 44 43
f 50 52 5
f 43 46 42
f 44 35 79
f 46 2 40
f 81 65 60
f 52 55 57
f 41 49 43
f 49 41 51
f 49 51 53
f 46 43 49
f 48 46 49
f 47 2 48
f 50 51 52
f 47 48 49
f 45 134 133
f 50 53 51
f 51 41 52
f 129 131 50
f 55 56 54
f 52 41 55
f 45 47 53
f 49 53 47
f 32 64 62
f 52 57 5
f 56 55 41
f 57 55 54
f 43 56 41
f 56 44 62
f 61 59 54
f 57 54 59
f 54 56 62
f 59 67 70
f 62 61 54
f 65 59 61
f 60 62 64
f 58 74 75
f 32 62 44
f 65 81 63
f 60 61 62
f 78 110 77
f 59 65 67
f 68 32 34
f 88 89 82
f 60 65 61
f 65 63 126
f 68 66 64
f 82 66 22
f 81 86 63
f 70 69 72
f 66 68 22
f 32 68 64
f 71 70 67
f 70 57 59
f 71 77 75
f 76 57 70
f 74 69 71
f 77 67 126
f 57 76 5
f 99 107 108
f 77 71 67
f 75 74 71
f 137 75 73
f 70 72 76
f 5 76 72
f 67 65 126
f 73 75 77
f 84 127 86
f 99 78 101
f 33 79 35
f 32 44 79
f 80 135 3
f 135 130 136
f 66 81 60
f 86 87 84
f 83 82 22
f 81 87 86
f 83 22 27
f 8 83 20
f 87 81 66
f 92 102 94
f 88 85 89
f 84 101 127
f 89 66 82
f 85 90 89
f 91 38 95
f 82 8 88
f 89 87 66
f 90 95 94
f 84 87 93
f 111 138 110
f 90 85 91
f 94 99 84
f 89 93 87
f 94 93 90
f 90 91 95
f 94 95 100
f 98 116 120
f 95 38 100
f 106 115 103
f 100 97 113
f 38 97 100
f 116 98 117
f 113 97 96
f 99 94 102
f 94 100 92
f 126 127 78
f 84 99 101
f 92 104 102
f 102 118 107
f 121 122 117
f 99 102 107
f 118 119 116
f 106 104 92
f 92 113 106
f 108 78 99
f 113 114 106
f 118 102 104
f 107 105 108
f 111 108 105
f 77 110 73
f 116 117 105
f 139 122 124
f 78 108 110
f 110 108 111
f 111 117 109
f 111 109 138
f 6 124 112
f 117 111 105
f 100 113 92
f 114 7 115
f 105 118 116
f 113 96 114
f 114 115 106
f 104 106 119
f 122 121 112
f 107 118 105
f 119 118 104
f 106 103 119
f 120 119 103
f 123 139 125
f 119 120 116
f 117 98 121
f 109 117 122
f 58 75 137
f 124 122 112
f 123 137 139
f 63 86 127
f 124 6 125
f 77 126 78
f 78 127 101
f 63 127 126
f 128 130 129
f 5 129 50
f 136 128 4
f 50 131 134
f 133 134 131
f 80 131 135
f 45 53 134
f 131 80 133
f 128 136 130
f 50 134 53
f 130 135 131
f 3 135 132
f 4 132 136
f 135 136 132
f 139 137 109
f 58 137 140
f 110 138 73
f 109 137 138
f 122 139 109
f 139 124 125
f 137 123 140
